<?xml version="1.0" encoding="UTF-8" standalone="no"?>
<svg width="512" height="512" viewBox="0 0 512 512" fill="none" xmlns="http://www.w3.org/2000/svg">
  <rect width="512" height="512" rx="128" fill="#F9F5FF"/>
  <path d="M128 176C128 149.49 149.49 128 176 128H336C362.51 128 384 149.49 384 176V336C384 362.51 362.51 384 336 384H176C149.49 384 128 362.51 128 336V176Z" fill="#7C3AED"/>
  <path d="M207.5 304L176 208H202L222.5 274L243 208H269L237.5 304H207.5Z" fill="white"/>
  <path d="M287 304V208H313V304H287Z" fill="white"/>
  <path d="M325 304V208H351L382 268V208H408V304H382L351 244V304H325Z" fill="white"/>
  <path d="M176 332V308H336V332H176Z" fill="white"/>
  <path d="M228 176C228 167.163 235.163 160 244 160H268C276.837 160 284 167.163 284 176V176C284 184.837 276.837 192 268 192H244C235.163 192 228 184.837 228 176V176Z" fill="white"/>
</svg>
